<svg width="10" height="8" viewBox="0 0 10 8" fill="none" xmlns="http://www.w3.org/2000/svg">
<path d="M9.3009 0.638586C9.23562 0.522765 9.14073 0.426378 9.02594 0.359299C8.91116 0.292219 8.7806 0.256857 8.64765 0.256836H1.35315C1.22027 0.2569 1.0898 0.292266 0.975078 0.359313C0.860357 0.426361 0.765508 0.522683 0.700237 0.638425C0.634966 0.754166 0.601616 0.88517 0.603599 1.01803C0.605583 1.15089 0.642829 1.28084 0.711527 1.39459L4.35878 7.42084C4.42559 7.53122 4.51974 7.62249 4.63214 7.68585C4.74454 7.7492 4.87138 7.78248 5.0004 7.78248C5.12943 7.78248 5.25627 7.7492 5.36866 7.68585C5.48106 7.62249 5.57522 7.53122 5.64203 7.42084L9.28928 1.39459C9.358 1.28089 9.39528 1.15099 9.39733 1.01816C9.39937 0.885327 9.36609 0.754337 9.3009 0.638586Z" fill="black"/>
</svg>
