<svg width="10" height="8" viewBox="0 0 10 8" fill="none" xmlns="http://www.w3.org/2000/svg">
<path d="M9.30066 0.619055C9.23538 0.503234 9.14049 0.406847 9.0257 0.339767C8.91091 0.272688 8.78036 0.237326 8.64741 0.237305H1.35291C1.22003 0.237369 1.08956 0.272735 0.974834 0.339782C0.860113 0.40683 0.765264 0.503152 0.699993 0.618893C0.634721 0.734634 0.601371 0.865639 0.603355 0.998501C0.605339 1.13136 0.642585 1.26131 0.711283 1.37505L4.35853 7.4013C4.42534 7.51168 4.5195 7.60296 4.63189 7.66632C4.74429 7.72967 4.87113 7.76295 5.00016 7.76295C5.12918 7.76295 5.25602 7.72967 5.36842 7.66632C5.48082 7.60296 5.57497 7.51168 5.64178 7.4013L9.28903 1.37505C9.35775 1.26136 9.39504 1.13146 9.39708 0.998627C9.39912 0.865796 9.36585 0.734806 9.30066 0.619055Z" fill="#4A46FF"/>
</svg>
