<svg width="20" height="18" viewBox="0 0 20 18" fill="none" xmlns="http://www.w3.org/2000/svg">
<path d="M4.16667 17.1253C5.08714 17.1253 5.83333 16.3791 5.83333 15.4587C5.83333 14.5382 5.08714 13.792 4.16667 13.792C3.24619 13.792 2.5 14.5382 2.5 15.4587C2.5 16.3791 3.24619 17.1253 4.16667 17.1253Z" fill="#737373"/>
<path d="M20 1.70833C20 1.48732 19.9122 1.27536 19.7559 1.11908C19.5997 0.962797 19.3877 0.875 19.1667 0.875H7.50001C7.279 0.875 7.06704 0.962797 6.91076 1.11908C6.75448 1.27536 6.66668 1.48732 6.66668 1.70833V4.625C6.66668 4.73551 6.62278 4.84149 6.54464 4.91963C6.4665 4.99777 6.36052 5.04167 6.25001 5.04167H4.86668C4.60587 5.04357 4.35012 5.11383 4.12494 5.24543C3.89976 5.37703 3.71302 5.56537 3.58335 5.79167L1.78335 9L0.308347 10.5167C0.210049 10.6135 0.132126 10.7289 0.0791703 10.8563C0.0262151 10.9837 -0.000699442 11.1204 1.38138e-05 11.2583V14.8333C1.38138e-05 15.1096 0.109761 15.3746 0.305111 15.5699C0.500461 15.7653 0.765413 15.875 1.04168 15.875C1.1012 15.8746 1.15813 15.8506 1.20001 15.8083C1.23606 15.7698 1.2568 15.7194 1.25835 15.6667C1.25419 15.6028 1.25419 15.5388 1.25835 15.475C1.25835 14.7015 1.56564 13.9596 2.11262 13.4126C2.6596 12.8656 3.40147 12.5583 4.17501 12.5583C4.94856 12.5583 5.69043 12.8656 6.23741 13.4126C6.78439 13.9596 7.09168 14.7015 7.09168 15.475C7.09381 15.5848 7.1384 15.6896 7.21608 15.7673C7.29376 15.845 7.39851 15.8895 7.50835 15.8917H12.5083C12.6189 15.8917 12.7248 15.8478 12.803 15.7696C12.8811 15.6915 12.925 15.5855 12.925 15.475C12.925 14.7015 13.2323 13.9596 13.7793 13.4126C14.3263 12.8656 15.0681 12.5583 15.8417 12.5583C16.6152 12.5583 17.3571 12.8656 17.9041 13.4126C18.4511 13.9596 18.7583 14.7015 18.7583 15.475C18.7605 15.5848 18.8051 15.6896 18.8827 15.7673C18.9604 15.845 19.0652 15.8895 19.175 15.8917C19.396 15.8917 19.608 15.8039 19.7643 15.6476C19.9206 15.4913 20.0083 15.2793 20.0083 15.0583L20 1.70833ZM6.66668 8.58333C6.66668 8.63859 6.64473 8.69158 6.60566 8.73065C6.56659 8.76972 6.5136 8.79167 6.45835 8.79167H4.16668C4.13023 8.79212 4.0944 8.78217 4.06341 8.76298C4.03241 8.74379 4.00753 8.71616 3.99168 8.68333C3.97159 8.65231 3.9609 8.61613 3.9609 8.57917C3.9609 8.5422 3.97159 8.50603 3.99168 8.475L5.00001 6.79167C5.03606 6.7309 5.08727 6.68052 5.14861 6.64547C5.20996 6.61041 5.27936 6.59187 5.35001 6.59167H6.43335C6.46273 6.58811 6.49253 6.59086 6.52077 6.59973C6.54901 6.6086 6.57503 6.62338 6.59711 6.64309C6.61918 6.6628 6.63681 6.68699 6.6488 6.71405C6.6608 6.7411 6.66689 6.7704 6.66668 6.8V8.58333ZM16.6667 10.0417C16.6667 10.1522 16.6228 10.2582 16.5446 10.3363C16.4665 10.4144 16.3605 10.4583 16.25 10.4583H10.4167C10.3062 10.4583 10.2002 10.4144 10.1221 10.3363C10.0439 10.2582 10 10.1522 10 10.0417V7.54167C10 7.43116 10.0439 7.32518 10.1221 7.24704C10.2002 7.1689 10.3062 7.125 10.4167 7.125H16.25C16.3605 7.125 16.4665 7.1689 16.5446 7.24704C16.6228 7.32518 16.6667 7.43116 16.6667 7.54167V10.0417ZM17.425 5.225C17.4659 5.28833 17.4877 5.36211 17.4877 5.4375C17.4877 5.51289 17.4659 5.58667 17.425 5.65C17.3917 5.71854 17.3395 5.77613 17.2745 5.81599C17.2095 5.85585 17.1346 5.87632 17.0583 5.875H9.55835C9.48812 5.87333 9.41957 5.8532 9.35959 5.81663C9.29961 5.78006 9.25032 5.72834 9.21668 5.66667C9.17578 5.60334 9.15402 5.52955 9.15402 5.45417C9.15402 5.37878 9.17578 5.30499 9.21668 5.24167L10.6667 3.16667C10.7045 3.1107 10.7554 3.06477 10.8149 3.03284C10.8744 3.0009 10.9408 2.98391 11.0083 2.98333H15.6583C15.7259 2.98391 15.7923 3.0009 15.8518 3.03284C15.9113 3.06477 15.9622 3.1107 16 3.16667L17.425 5.225Z" fill="#737373"/>
<path d="M15.8332 17.1253C16.7536 17.1253 17.4998 16.3791 17.4998 15.4587C17.4998 14.5382 16.7536 13.792 15.8332 13.792C14.9127 13.792 14.1665 14.5382 14.1665 15.4587C14.1665 16.3791 14.9127 17.1253 15.8332 17.1253Z" fill="#737373"/>
</svg>
