<svg width="20" height="20" viewBox="0 0 20 20" fill="none" xmlns="http://www.w3.org/2000/svg">
<g clip-path="url(#clip0_3515_28674)">
<path d="M8.21395 13.1994C8.02145 13.2177 7.82724 13.1968 7.64307 13.1379C7.4589 13.0789 7.28861 12.9832 7.14252 12.8565C6.99751 12.7228 6.88179 12.5604 6.80263 12.3797C6.72348 12.199 6.68262 12.0038 6.68262 11.8065C6.68262 11.6092 6.72348 11.4141 6.80263 11.2334C6.88179 11.0527 6.99751 10.8903 7.14252 10.7565L10.7711 7.14224C11.0439 6.86566 11.4154 6.70877 11.8038 6.70609C12.1923 6.70341 12.5659 6.85516 12.8425 7.12795C13.1191 7.40075 13.276 7.77224 13.2787 8.16071C13.2814 8.54918 13.1296 8.9228 12.8568 9.19938L9.22824 12.8565C8.94737 13.098 8.58371 13.2209 8.21395 13.1994Z" fill="#737373"/>
<path d="M15.714 12.857C15.526 12.8581 15.3396 12.822 15.1656 12.7509C14.9915 12.6798 14.8332 12.5751 14.6997 12.4427C14.5658 12.3099 14.4595 12.1519 14.387 11.9778C14.3145 11.8037 14.2771 11.617 14.2771 11.4284C14.2771 11.2398 14.3145 11.0531 14.387 10.879C14.4595 10.7049 14.5658 10.5469 14.6997 10.4141L16.7283 8.38555C16.8622 8.25275 16.9685 8.09475 17.041 7.92066C17.1135 7.74658 17.1508 7.55986 17.1508 7.37127C17.1508 7.18268 17.1135 6.99596 17.041 6.82187C16.9685 6.64779 16.8622 6.48979 16.7283 6.35698L13.6283 3.2427C13.4955 3.1088 13.3375 3.00252 13.1634 2.92999C12.9893 2.85747 12.8026 2.82013 12.614 2.82013C12.4254 2.82013 12.2387 2.85747 12.0646 2.92999C11.8905 3.00252 11.7325 3.1088 11.5997 3.2427L9.58542 5.27127C9.45222 5.40447 9.29409 5.51012 9.12006 5.58221C8.94603 5.6543 8.75951 5.6914 8.57114 5.6914C8.38277 5.6914 8.19624 5.6543 8.02221 5.58221C7.84818 5.51012 7.69005 5.40447 7.55685 5.27127C7.28784 5.00226 7.13672 4.63741 7.13672 4.25698C7.13672 4.06861 7.17382 3.88209 7.24591 3.70805C7.31799 3.53402 7.42365 3.37589 7.55685 3.2427L9.58542 1.21412C10.4065 0.41733 11.5056 -0.0283203 12.6497 -0.0283203C13.7938 -0.0283203 14.8929 0.41733 15.714 1.21412L18.7426 4.28555C19.1421 4.68371 19.4591 5.15682 19.6754 5.67776C19.8917 6.1987 20.0031 6.75721 20.0031 7.32127C20.0031 7.88533 19.8917 8.44384 19.6754 8.96478C19.4591 9.48571 19.1421 9.95882 18.7426 10.357L16.7283 12.4284C16.596 12.5634 16.4382 12.6708 16.2641 12.7443C16.09 12.8179 15.903 12.8562 15.714 12.857Z" fill="#737373"/>
<path d="M7.38519 19.9995C6.24893 19.9985 5.15957 19.5463 4.35662 18.7423L1.25662 15.6281C0.857074 15.2299 0.540058 14.7568 0.323749 14.2359C0.107441 13.7149 -0.00390625 13.1564 -0.00390625 12.5923C-0.00390625 12.0283 0.107441 11.4698 0.323749 10.9488C0.540058 10.4279 0.857074 9.95479 1.25662 9.55663L3.2709 7.54235C3.53801 7.27334 3.90105 7.12147 4.28014 7.12013C4.65923 7.11879 5.02332 7.2681 5.29233 7.53521C5.56134 7.80232 5.71321 8.16535 5.71455 8.54444C5.71589 8.92353 5.56658 9.28763 5.29947 9.55663L3.2709 11.5852C3.137 11.718 3.03073 11.876 2.9582 12.0501C2.88567 12.2242 2.84833 12.4109 2.84833 12.5995C2.84833 12.7881 2.88567 12.9748 2.9582 13.1489C3.03073 13.323 3.137 13.481 3.2709 13.6138L6.3709 16.7138C6.50371 16.8477 6.66171 16.954 6.83579 17.0265C7.00988 17.099 7.1966 17.1363 7.38519 17.1363C7.57378 17.1363 7.7605 17.099 7.93458 17.0265C8.10867 16.954 8.26667 16.8477 8.39947 16.7138L10.4138 14.6995C10.6809 14.4305 11.0439 14.2786 11.423 14.2773C11.8021 14.2759 12.1662 14.4252 12.4352 14.6923C12.7042 14.9595 12.8561 15.3225 12.8574 15.7016C12.8588 16.0807 12.7094 16.4448 12.4423 16.7138L10.4138 18.7423C9.6108 19.5463 8.52145 19.9985 7.38519 19.9995Z" fill="#737373"/>
</g>
<defs>
<clipPath id="clip0_3515_28674">
<rect width="20" height="20" fill="white"/>
</clipPath>
</defs>
</svg>
