<svg width="21" height="20" viewBox="0 0 21 20" fill="none" xmlns="http://www.w3.org/2000/svg">
<mask id="mask0_529_196433" style="mask-type:alpha" maskUnits="userSpaceOnUse" x="0" y="0" width="21" height="20">
<rect x="0.5" width="20" height="20" fill="#D9D9D9"/>
</mask>
<g mask="url(#mask0_529_196433)">
<path d="M6.33333 19.1667L8.66667 7.41667L7.16667 8V10.8333H5.5V6.91667L9.70833 5.125C9.90278 5.04167 10.1078 4.99305 10.3233 4.97917C10.5383 4.96528 10.7431 4.99305 10.9375 5.0625C11.1319 5.13194 11.3161 5.22917 11.49 5.35417C11.6633 5.47917 11.8056 5.63889 11.9167 5.83333L12.75 7.16667C13.1111 7.75 13.6006 8.22917 14.2183 8.60417C14.8367 8.97917 15.5417 9.16667 16.3333 9.16667V10.8333C15.3611 10.8333 14.4931 10.6319 13.7292 10.2292C12.9653 9.82639 12.3125 9.3125 11.7708 8.6875L11.25 11.25L13 12.9167V19.1667H11.3333V13.75L9.58333 12.4167L8.08333 19.1667H6.33333ZM11.75 4.58333C11.2917 4.58333 10.8994 4.42 10.5733 4.09333C10.2467 3.76722 10.0833 3.375 10.0833 2.91667C10.0833 2.45833 10.2467 2.06583 10.5733 1.73917C10.8994 1.41306 11.2917 1.25 11.75 1.25C12.2083 1.25 12.6008 1.41306 12.9275 1.73917C13.2536 2.06583 13.4167 2.45833 13.4167 2.91667C13.4167 3.375 13.2536 3.76722 12.9275 4.09333C12.6008 4.42 12.2083 4.58333 11.75 4.58333Z" fill="white"/>
</g>
</svg>
