<svg width="16" height="16" viewBox="0 0 16 16" fill="none" xmlns="http://www.w3.org/2000/svg">
<g clip-path="url(#clip0_3566_28824)">
<path d="M15.8268 2.10651C15.8085 1.9951 15.7622 1.89016 15.6922 1.80154C15.6222 1.71292 15.5309 1.64352 15.4268 1.59985C15.3197 1.55113 15.2016 1.53164 15.0845 1.54335C14.9674 1.55506 14.8555 1.59755 14.7601 1.66651C13.2294 2.6113 11.4507 3.07572 9.65344 2.99985C5.56011 2.96651 3.84011 4.66651 3.80678 4.66651C3.13069 5.16774 2.58096 5.81989 2.20133 6.57103C1.82171 7.32217 1.62269 8.15156 1.62011 8.99318C1.61024 9.69598 1.73938 10.3938 2.00011 11.0465C2.02313 11.1058 2.02909 11.1703 2.01731 11.2327C2.00552 11.2952 1.97647 11.3531 1.93344 11.3998L0.180109 13.3332C0.117623 13.3952 0.0680272 13.4689 0.0341814 13.5501C0.000335652 13.6314 -0.0170898 13.7185 -0.0170898 13.8065C-0.0170898 13.8945 0.000335652 13.9817 0.0341814 14.0629C0.0680272 14.1441 0.117623 14.2179 0.180109 14.2798C0.29767 14.3914 0.451855 14.4564 0.613822 14.4625C0.775789 14.4686 0.934444 14.4155 1.06011 14.3132C2.23344 13.2665 4.10011 10.1332 9.33344 7.93985C9.41486 7.9057 9.50221 7.88793 9.5905 7.88754C9.67879 7.88716 9.76629 7.90416 9.848 7.93759C9.92972 7.97102 10.004 8.02022 10.0668 8.08237C10.1295 8.14453 10.1793 8.21843 10.2134 8.29985C10.2476 8.38127 10.2654 8.46861 10.2657 8.5569C10.2661 8.64519 10.2491 8.73269 10.2157 8.8144C10.1823 8.89612 10.1331 8.97045 10.0709 9.03315C10.0088 9.09586 9.93486 9.1457 9.85344 9.17985C7.7584 10.035 5.84964 11.2894 4.23344 12.8732L4.07344 13.0398C4.03942 13.0798 4.0151 13.127 4.00237 13.1779C3.98965 13.2288 3.98888 13.2819 4.00011 13.3332C4.0071 13.3826 4.02511 13.4298 4.0528 13.4714C4.0805 13.5129 4.11717 13.5477 4.16011 13.5732C5.01131 14.1063 5.99574 14.3882 7.00011 14.3865C8.34984 14.3598 9.67174 13.9978 10.8468 13.3332C16.6668 10.1132 16.1334 3.92651 15.8268 2.10651Z" fill="black"/>
</g>
<defs>
<clipPath id="clip0_3566_28824">
<rect width="16" height="16" fill="white"/>
</clipPath>
</defs>
</svg>
