<svg width="48" height="43" viewBox="0 0 48 43" fill="none" xmlns="http://www.w3.org/2000/svg">
<g clip-path="url(#clip0_5010_66429)">
<path fill-rule="evenodd" clip-rule="evenodd" d="M24.8144 16.1019L23.9272 16.9572L23.0349 16.1019C21.0775 14.2262 17.8268 14.0725 15.6627 15.7511C13.45 17.4663 13.1901 20.4405 15.0097 22.4998C17.6129 25.4443 20.5966 28.3521 23.9272 30.6382C27.3419 28.2945 30.39 25.2998 33.0389 22.2796C34.7591 20.319 34.4041 17.4732 32.3063 15.8428L32.2068 15.7671C30.022 14.0725 26.772 14.2262 24.8144 16.1019Z" fill="#4A46FF"/>
<path fill-rule="evenodd" clip-rule="evenodd" d="M37.8242 0.558594C43.2055 0.558594 47.5679 4.4728 47.5679 9.30121V14.9941H41.6764V9.30121C41.6764 7.3923 39.9518 5.84483 37.8242 5.84483H31.4795V0.558594H37.8242Z" fill="#4A46FF"/>
<path fill-rule="evenodd" clip-rule="evenodd" d="M47.5679 33.6986C47.5679 38.5271 43.2055 42.4412 37.8242 42.4412H31.4795V37.155H37.8242C39.9518 37.155 41.6764 35.6075 41.6764 33.6986V28.0059H47.5679V33.6986Z" fill="#4A46FF"/>
<path fill-rule="evenodd" clip-rule="evenodd" d="M10.6324 0.558594C5.25104 0.558594 0.888672 4.4728 0.888672 9.30121V14.9941H6.78018V9.30121C6.78018 7.3923 8.50483 5.84483 10.6324 5.84483H16.9771V0.558594H10.6324Z" fill="#4A46FF"/>
<path fill-rule="evenodd" clip-rule="evenodd" d="M0.888673 33.6986C0.888673 38.5271 5.25104 42.4412 10.6324 42.4412H16.9771V37.155H10.6324C8.50483 37.155 6.78018 35.6075 6.78018 33.6986V28.0059H0.888672L0.888673 33.6986Z" fill="#4A46FF"/>
</g>
<defs>
<clipPath id="clip0_5010_66429">
<rect width="48" height="43" fill="white"/>
</clipPath>
</defs>
</svg>
