<svg width="12" height="13" viewBox="0 0 12 13" fill="none" xmlns="http://www.w3.org/2000/svg">
<path d="M6 0.0195312C4.81331 0.0195313 3.65328 0.371425 2.66658 1.03071C1.67989 1.69 0.910851 2.62707 0.456726 3.72343C0.00259975 4.81979 -0.11622 6.02619 0.115291 7.19007C0.346802 8.35396 0.918247 9.42306 1.75736 10.2622C2.59648 11.1013 3.66558 11.6727 4.82946 11.9042C5.99335 12.1358 7.19975 12.0169 8.2961 11.5628C9.39246 11.1087 10.3295 10.3396 10.9888 9.35295C11.6481 8.36626 12 7.20622 12 6.01953C12 4.42823 11.3679 2.90211 10.2426 1.77689C9.11742 0.651672 7.5913 0.0195313 6 0.0195312ZM10.6286 5.16239C10.6371 5.22563 10.6218 5.28978 10.5857 5.34239C10.5649 5.36743 10.5386 5.38739 10.5089 5.40076C10.4792 5.41413 10.4468 5.42055 10.4143 5.41953H8.76C8.73007 5.41656 8.7011 5.40732 8.67498 5.39241C8.64885 5.37751 8.62616 5.35727 8.60837 5.33301C8.59058 5.30876 8.5781 5.28103 8.57174 5.25163C8.56537 5.22224 8.56527 5.19183 8.57143 5.16239C8.52512 4.14358 8.34648 3.13511 8.04 2.16239C8.02798 2.12168 8.02832 2.07832 8.04097 2.0378C8.05363 1.99729 8.07803 1.96144 8.11108 1.93482C8.14414 1.90819 8.18436 1.89198 8.22664 1.88824C8.26892 1.8845 8.31136 1.8934 8.34857 1.91382C8.94268 2.25608 9.45465 2.72426 9.84853 3.28547C10.2424 3.84668 10.5087 4.48732 10.6286 5.16239ZM6 10.7338C5.66572 10.7338 4.89429 9.39667 4.74 6.88525C4.73945 6.82802 4.76094 6.77278 4.8 6.73096C4.81904 6.70882 4.84275 6.69118 4.86943 6.67932C4.89612 6.66746 4.9251 6.66168 4.95429 6.66239H7.04572C7.07491 6.66168 7.10389 6.66746 7.13057 6.67932C7.15725 6.69118 7.18097 6.70882 7.2 6.73096C7.23708 6.7706 7.25842 6.82242 7.26 6.87667C7.10572 9.39667 6.33429 10.7338 6 10.7338ZM4.95429 5.37667C4.92527 5.37629 4.89663 5.37001 4.87011 5.35822C4.84359 5.34644 4.81974 5.32938 4.8 5.3081C4.76292 5.26846 4.74159 5.21665 4.74 5.16239C4.89429 2.64239 5.66572 1.30525 6 1.30525C6.33429 1.30525 7.10572 2.64239 7.26 5.16239C7.2614 5.19217 7.25681 5.22192 7.24651 5.2499C7.2362 5.27787 7.22039 5.30349 7.2 5.32525C7.18097 5.34739 7.15725 5.36503 7.13057 5.37688C7.10389 5.38874 7.07491 5.39453 7.04572 5.39382L4.95429 5.37667ZM3.67715 1.9481C3.71436 1.92769 3.7568 1.91879 3.79908 1.92252C3.84136 1.92626 3.88158 1.94247 3.91464 1.9691C3.94769 1.99573 3.97209 2.03157 3.98475 2.07209C3.9974 2.11261 3.99774 2.15597 3.98572 2.19667C3.67341 3.15722 3.48616 4.15399 3.42857 5.16239C3.42636 5.21772 3.40281 5.27005 3.36286 5.3084C3.32291 5.34675 3.26967 5.36815 3.21429 5.3681H1.58572C1.55316 5.36912 1.5208 5.3627 1.49109 5.34933C1.46139 5.33597 1.43512 5.316 1.41429 5.29096C1.38876 5.25271 1.37396 5.20831 1.37143 5.16239C1.49539 4.48656 1.76611 3.84616 2.1645 3.28635C2.56288 2.72653 3.07924 2.26093 3.67715 1.92239V1.9481ZM1.37143 6.91953C1.34975 6.86149 1.34975 6.79757 1.37143 6.73953C1.39226 6.71449 1.41853 6.69453 1.44823 6.68116C1.47794 6.66779 1.5103 6.66137 1.54286 6.66239H3.24C3.29227 6.6687 3.34038 6.69404 3.37516 6.73356C3.40994 6.77309 3.42895 6.82403 3.42857 6.87667C3.47488 7.89549 3.65352 8.90395 3.96 9.87667C3.97203 9.91738 3.97169 9.96074 3.95903 10.0013C3.94638 10.0418 3.92198 10.0776 3.88892 10.1042C3.85587 10.1309 3.81565 10.1471 3.77337 10.1508C3.73108 10.1546 3.68865 10.1457 3.65143 10.1252C3.06224 9.7875 2.55329 9.326 2.15967 8.77257C1.76606 8.21914 1.49713 7.58693 1.37143 6.91953ZM8.32286 10.1167C8.28565 10.1371 8.24321 10.146 8.20092 10.1423C8.15864 10.1385 8.11843 10.1223 8.08537 10.0957C8.05231 10.069 8.02791 10.0332 8.01526 9.99269C8.0026 9.95217 8.00227 9.90881 8.01429 9.8681C8.32877 8.89929 8.51605 7.89374 8.57143 6.87667C8.57365 6.82134 8.5972 6.76901 8.63715 6.73066C8.67709 6.69231 8.73034 6.67092 8.78572 6.67096H10.44C10.4726 6.66994 10.5049 6.67636 10.5346 6.68973C10.5643 6.7031 10.5906 6.72306 10.6114 6.7481C10.6476 6.80071 10.6628 6.86486 10.6543 6.9281C10.5205 7.597 10.2427 8.22873 9.84004 8.77937C9.43742 9.33002 8.91969 9.78636 8.32286 10.1167Z" fill="black"/>
</svg>
