<svg width="15" height="20" viewBox="0 0 15 20" fill="none" xmlns="http://www.w3.org/2000/svg">
<path d="M7.20975 -0.133789C5.31535 -0.133789 3.49853 0.61876 2.15899 1.95831C0.819443 3.29785 0.0668945 5.11466 0.0668945 7.00907C0.0668945 10.6948 5.96689 18.6805 6.63832 19.5805C6.70486 19.6692 6.79113 19.7412 6.89031 19.7908C6.9895 19.8404 7.09886 19.8662 7.20975 19.8662C7.32064 19.8662 7.43001 19.8404 7.52919 19.7908C7.62837 19.7412 7.71465 19.6692 7.78118 19.5805C8.45261 18.6805 14.3526 10.6948 14.3526 7.00907C14.3526 6.07105 14.1679 5.14223 13.8089 4.27562C13.4499 3.409 12.9238 2.62158 12.2605 1.95831C11.5972 1.29503 10.8098 0.768891 9.9432 0.409929C9.07659 0.0509664 8.14777 -0.133789 7.20975 -0.133789V-0.133789ZM7.20975 9.15193C6.78593 9.15193 6.37163 9.02625 6.01924 8.79079C5.66685 8.55533 5.3922 8.22066 5.23001 7.8291C5.06782 7.43755 5.02539 7.00669 5.10807 6.59102C5.19075 6.17534 5.39484 5.79352 5.69452 5.49384C5.99421 5.19416 6.37603 4.99007 6.7917 4.90739C7.20737 4.8247 7.63823 4.86714 8.02979 5.02933C8.42134 5.19151 8.75601 5.46617 8.99147 5.81856C9.22693 6.17095 9.35261 6.58525 9.35261 7.00907C9.35261 7.57739 9.12684 8.12243 8.72498 8.5243C8.32312 8.92616 7.77807 9.15193 7.20975 9.15193Z" fill="#737373"/>
</svg>
