<svg width="16" height="16" viewBox="0 0 16 16" fill="none" xmlns="http://www.w3.org/2000/svg">
<g clip-path="url(#clip0_3566_28828)">
<path d="M12.6133 6.40667C12.6735 6.46148 12.7519 6.49186 12.8333 6.49186C12.9147 6.49186 12.9932 6.46148 13.0533 6.40667C13.5576 5.93559 14.1916 5.6267 14.8733 5.52C14.9541 5.50882 15.0281 5.46901 15.0819 5.40783C15.1358 5.34665 15.1658 5.26816 15.1667 5.18667V4.83333C15.1676 4.39091 15.0428 3.95732 14.8067 3.58314C14.5707 3.20896 14.2331 2.90961 13.8333 2.72C13.7933 2.7014 13.7574 2.67504 13.7276 2.64244C13.6978 2.60984 13.6749 2.57166 13.66 2.53011C13.6451 2.48856 13.6386 2.44446 13.6409 2.40038C13.6432 2.3563 13.6542 2.31312 13.6733 2.27333C13.81 1.99309 14.0222 1.75659 14.286 1.5905C14.5499 1.42441 14.8549 1.33534 15.1667 1.33333C15.3435 1.33333 15.513 1.2631 15.6381 1.13807C15.7631 1.01305 15.8333 0.843478 15.8333 0.666667C15.8333 0.489856 15.7631 0.320286 15.6381 0.195262C15.513 0.0702379 15.3435 0 15.1667 0C14.4999 0.000141018 13.8522 0.222391 13.3259 0.631651C12.7995 1.04091 12.4245 1.61386 12.26 2.26C12.2347 2.35662 12.188 2.44633 12.1234 2.52249C12.0588 2.59864 11.9779 2.65931 11.8867 2.7C11.4749 2.88461 11.125 3.18405 10.8791 3.56242C10.6332 3.94079 10.5015 4.38206 10.5 4.83333V5.18667C10.5008 5.26816 10.5309 5.34665 10.5847 5.40783C10.6386 5.46901 10.7126 5.50882 10.7933 5.52C11.4736 5.63133 12.1064 5.93959 12.6133 6.40667Z" fill="black"/>
<path d="M13.2134 7.66038C13.1669 7.71566 13.1086 7.7599 13.0429 7.78988C12.9772 7.81986 12.9056 7.83483 12.8334 7.83371C12.7621 7.83479 12.6915 7.81976 12.6269 7.78975C12.5622 7.75974 12.5052 7.71551 12.46 7.66038C12.0558 7.16389 11.5265 6.78418 10.9267 6.56038C10.8765 6.54681 10.8239 6.54517 10.7729 6.55559C10.722 6.56601 10.6742 6.58819 10.6334 6.62038C10.5917 6.64962 10.5578 6.68858 10.5345 6.73388C10.5113 6.77919 10.4995 6.82947 10.5 6.88038V7.63371C10.5038 8.56568 10.2248 9.47688 9.69994 10.247C9.17503 11.0171 8.42889 11.6099 7.56004 11.947C5.50004 12.7604 3.23337 12.0537 1.33337 10.0004C1.23379 9.87399 1.09186 9.78789 0.933766 9.75796C0.775673 9.72802 0.612087 9.75627 0.473192 9.8375C0.334296 9.91872 0.229463 10.0474 0.178036 10.1999C0.126608 10.3524 0.132056 10.5183 0.193375 10.667C0.659525 12.201 1.60374 13.5459 2.88821 14.5053C4.17267 15.4648 5.73017 15.9886 7.33337 16.0004C11.5667 16.0004 15.1467 12.5804 15.1467 8.52704V6.88038C15.1462 6.82872 15.1339 6.77786 15.1108 6.73165C15.0877 6.68544 15.0544 6.64511 15.0134 6.61371C14.9713 6.58398 14.9233 6.5638 14.8726 6.55459C14.8219 6.54538 14.7699 6.54735 14.72 6.56038C14.1294 6.78745 13.6096 7.167 13.2134 7.66038Z" fill="black"/>
</g>
<defs>
<clipPath id="clip0_3566_28828">
<rect width="16" height="16" fill="white"/>
</clipPath>
</defs>
</svg>
