<svg width="20" height="20" viewBox="0 0 20 20" fill="none" xmlns="http://www.w3.org/2000/svg">
<path d="M10 0C4.4775 0 0 4.4775 0 10C0 15.5225 4.4775 20 10 20C15.5225 20 20 15.5225 20 10C20 4.4775 15.5225 0 10 0ZM14.2717 13.7292C14.2242 13.7933 14.1858 14.0625 14.1233 14.275C14.0517 14.5208 13.8267 14.4933 13.5767 14.4442C13.2125 14.3733 12.8875 14.3533 12.5092 14.4158C11.855 14.525 11.175 15.4925 10.035 15.4925C8.80833 15.4925 8.17 14.5292 7.49 14.4158C6.79667 14.3008 6.39833 14.4858 6.15917 14.4858C5.975 14.4858 5.90333 14.3733 5.87583 14.28C5.81417 14.0708 5.77583 13.7958 5.7275 13.73C5.25667 13.6575 4.19417 13.4725 4.16667 12.9983C4.16 12.875 4.24667 12.7658 4.36917 12.7458C5.92917 12.4892 6.92167 10.73 6.76 10.3483C6.645 10.0775 6.1475 9.98 5.93833 9.8975C5.39833 9.68417 5.3225 9.43917 5.355 9.27083C5.39917 9.0375 5.68417 8.88083 5.92167 8.88083C6.15083 8.88083 6.555 9.18667 6.87 9.0125C6.82417 8.19417 6.70833 7.02333 7 6.37C7.55583 5.12333 8.77417 4.50667 9.99333 4.50667C11.2208 4.50667 12.4483 5.13167 13 6.36917C13.2908 7.02167 13.1767 8.18667 13.13 9.0125C13.4275 9.17667 13.7958 8.87333 14.0525 8.87333C14.3042 8.87333 14.6458 9.04333 14.6517 9.3275C14.6558 9.55 14.4575 9.74167 14.0617 9.8975C13.8492 9.98167 13.355 10.0783 13.24 10.3483C13.075 10.7383 14.0983 12.4925 15.6308 12.745C15.7525 12.765 15.84 12.8733 15.8333 12.9975C15.8058 13.4717 14.7383 13.6567 14.2717 13.7292Z" fill="#737373"/>
</svg>
