<svg width="18" height="20" viewBox="0 0 18 20" fill="none" xmlns="http://www.w3.org/2000/svg">
<g clip-path="url(#clip0_3519_28711)">
<path d="M17.75 4.79031C16.8507 4.79167 15.9693 4.54093 15.2064 4.06674C15.2188 4.08026 15.2188 4.0803 15.2064 4.06686C14.0703 3.36099 13.2517 2.19641 13.0118 0.833333C12.9888 0.703048 12.9713 0.571903 12.9591 0.440266V0H9.50115V13.6726C9.4956 15.2663 8.19658 16.5569 6.59444 16.5569C6.12401 16.5569 5.67998 16.4458 5.28666 16.2482C4.33815 15.7715 3.68772 14.7929 3.68772 13.6627C3.68772 12.0643 4.98896 10.7684 6.59444 10.7684C6.90201 10.7684 7.19848 10.8161 7.47657 10.904V7.40438C7.18775 7.36504 6.89646 7.34538 6.6048 7.3455C3.09503 7.3455 0.25 10.1783 0.25 13.6726C0.25 15.863 1.36778 17.7935 3.06653 18.9292L3.06714 18.9298C4.0782 19.6058 5.2953 20 6.60468 20C10.1141 20 12.9591 17.1672 12.9591 13.6727V6.68695C14.3097 7.64798 15.9637 8.2135 17.75 8.2135" fill="#737373"/>
</g>
<defs>
<clipPath id="clip0_3519_28711">
<rect width="17.5" height="20" fill="white" transform="translate(0.25)"/>
</clipPath>
</defs>
</svg>
