<svg width="20" height="20" viewBox="0 0 20 20" fill="none" xmlns="http://www.w3.org/2000/svg">
<path d="M18.8915 14.1669L16.8498 12.1252C16.6326 11.9035 16.3733 11.7273 16.0871 11.607C15.8009 11.4868 15.4936 11.4248 15.1832 11.4248C14.8728 11.4248 14.5654 11.4868 14.2793 11.607C13.9931 11.7273 13.7338 11.9035 13.5165 12.1252L13.1082 12.5335C11.0516 10.8173 9.15242 8.92087 7.43318 6.86685L7.84984 6.45018C8.29155 6.00799 8.53966 5.40853 8.53966 4.78352C8.53966 4.1585 8.29155 3.55905 7.84984 3.11685L5.83318 1.10018C5.38679 0.666457 4.78891 0.423828 4.16651 0.423828C3.54411 0.423828 2.94623 0.666457 2.49984 1.10018L1.38318 2.21685C0.847982 2.75916 0.514725 3.46845 0.438911 4.22659C0.363097 4.98473 0.549301 5.74597 0.966511 6.38352C4.2967 11.3971 8.59464 15.695 13.6082 19.0252C14.2457 19.4424 15.007 19.6286 15.7651 19.5528C16.5232 19.477 17.2325 19.1437 17.7748 18.6085L18.8915 17.5002C19.1132 17.2829 19.2894 17.0236 19.4097 16.7374C19.5299 16.4512 19.5919 16.1439 19.5919 15.8335C19.5919 15.5231 19.5299 15.2158 19.4097 14.9296C19.2894 14.6434 19.1132 14.3841 18.8915 14.1669Z" fill="#737373"/>
</svg>
