<svg width="20" height="16" viewBox="0 0 20 16" fill="none" xmlns="http://www.w3.org/2000/svg">
<path d="M19.4334 3.36667C19.4927 3.31738 19.5372 3.25261 19.5619 3.17955C19.5865 3.1065 19.5905 3.02803 19.5732 2.95289C19.5559 2.87774 19.5181 2.80886 19.464 2.75392C19.4099 2.69897 19.3417 2.66011 19.2668 2.64167L18.6084 2.48334C18.5478 2.46809 18.4915 2.43913 18.4438 2.39867C18.3961 2.35822 18.3584 2.30735 18.3334 2.25C18.3068 2.19403 18.293 2.13283 18.293 2.07084C18.293 2.00884 18.3068 1.94764 18.3334 1.89167L18.7085 1.15C18.7441 1.07739 18.7578 0.995971 18.748 0.915682C18.7382 0.835392 18.7052 0.759704 18.653 0.697853C18.6009 0.636002 18.5319 0.590663 18.4544 0.567368C18.377 0.544073 18.2944 0.54383 18.2168 0.566668L16.5501 1.03334C16.4887 1.05026 16.4242 1.05228 16.3619 1.03924C16.2995 1.02619 16.2412 0.998456 16.1918 0.958335C15.5727 0.494055 14.8366 0.21133 14.066 0.141838C13.2953 0.0723466 12.5205 0.218835 11.8284 0.564888C11.1363 0.910942 10.5542 1.44289 10.1474 2.10112C9.74059 2.75936 9.52512 3.51787 9.52512 4.29167V4.59167C9.52549 4.64285 9.507 4.69238 9.47319 4.7308C9.43937 4.76923 9.3926 4.79386 9.34178 4.8C7.00012 5.075 4.75845 3.88334 2.34178 1.1C2.29082 1.03984 2.22383 0.99538 2.14859 0.971778C2.07336 0.948176 1.99298 0.946404 1.91678 0.966669C1.8442 0.997177 1.78198 1.04802 1.73762 1.11307C1.69327 1.17813 1.66867 1.25462 1.66678 1.33334C1.32907 2.70416 1.46414 4.14887 2.05012 5.43334C2.06835 5.46653 2.07791 5.50379 2.07791 5.54167C2.07791 5.57954 2.06835 5.61681 2.05012 5.65C2.0277 5.68313 1.99587 5.70878 1.95874 5.72364C1.9216 5.73849 1.88086 5.74187 1.84178 5.73334L0.900115 5.55C0.83349 5.54096 0.765675 5.54755 0.702036 5.56925C0.638397 5.59094 0.580679 5.62715 0.533449 5.675C0.488005 5.72341 0.454535 5.78179 0.435722 5.84546C0.416909 5.90914 0.413276 5.97634 0.425115 6.04167C0.497064 6.68121 0.711927 7.29638 1.0538 7.84164C1.39567 8.3869 1.8558 8.8483 2.40012 9.19167C2.43272 9.21141 2.45929 9.23972 2.47692 9.27352C2.49455 9.30731 2.50258 9.3453 2.50012 9.38334C2.49971 9.42282 2.48762 9.4613 2.46537 9.49393C2.44313 9.52655 2.41172 9.55186 2.37512 9.56667L1.92512 9.74167C1.81854 9.78835 1.73469 9.87519 1.69178 9.98334C1.66932 10.036 1.65774 10.0927 1.65774 10.15C1.65774 10.2073 1.66932 10.264 1.69178 10.3167C1.93602 10.8511 2.30625 11.3183 2.7707 11.6783C3.23515 12.0382 3.77997 12.2802 4.35845 12.3833C4.39958 12.3956 4.43634 12.4194 4.46439 12.4519C4.49245 12.4844 4.51063 12.5242 4.51678 12.5667C4.5209 12.6113 4.51109 12.6561 4.48871 12.6949C4.46632 12.7337 4.43246 12.7646 4.39178 12.7833C3.26295 13.2456 2.05321 13.4779 0.833449 13.4667C0.722942 13.4446 0.608181 13.4673 0.514413 13.5298C0.420645 13.5923 0.35555 13.6895 0.333449 13.8C0.311347 13.9105 0.33405 14.0253 0.396562 14.119C0.459074 14.2128 0.556275 14.2779 0.666782 14.3C2.78856 15.3102 5.10065 15.8584 7.45012 15.9083C9.5162 15.9389 11.5454 15.3591 13.2834 14.2417C14.7139 13.2886 15.8857 11.9959 16.6943 10.4791C17.5028 8.96234 17.9229 7.26882 17.9168 5.55V4.825C17.9167 4.76439 17.9301 4.70453 17.9561 4.64976C17.982 4.59499 18.0198 4.54668 18.0668 4.50834L19.4334 3.36667Z" fill="#737373"/>
</svg>
